<svg id="svg" xmlns="http://www.w3.org/2000/svg" xmlns:xlink="http://www.w3.org/1999/xlink" width="400" height="400.407747196738" viewBox="0, 0, 400,400.407747196738"><g id="svgg"><path id="path0" d="M181.457 0.852 C 97.086 8.972,26.610 69.588,6.139 151.641 C 1.583 169.900,0.421 179.804,0.417 200.408 C 0.413 220.949,1.761 231.937,6.537 250.297 C 34.972 359.596,147.239 423.615,255.822 392.449 C 323.925 372.901,377.008 317.807,394.291 248.733 C 398.760 230.874,399.988 220.408,399.988 200.204 C 399.988 126.269,360.683 59.913,295.828 24.358 C 262.728 6.211,219.046 -2.766,181.457 0.852 M208.970 13.268 C 265.167 15.123,318.706 44.079,352.470 90.878 C 390.265 143.265,398.226 212.619,373.262 272.012 C 348.625 330.628,298.608 371.588,236.160 384.288 C 214.076 388.779,184.415 388.608,162.080 383.860 C 51.247 360.302,-13.907 245.551,23.061 139.017 C 47.670 68.102,111.193 19.163,186.544 13.067 C 190.485 12.748,194.235 12.781,208.970 13.268 M186.952 28.584 C 94.368 33.952,21.358 118.670,28.509 212.436 C 34.556 291.730,92.024 355.692,170.077 370.002 C 181.297 372.059,214.482 372.605,225.280 370.911 C 298.312 359.450,355.348 304.576,369.596 232.067 C 372.019 219.732,372.763 187.645,370.906 175.535 C 364.633 134.627,345.007 98.721,313.761 70.987 C 278.596 39.773,236.537 25.710,186.952 28.584 M302.548 134.062 L 302.548 140.498 283.282 152.905 C 272.686 159.728,249.711 174.550,232.226 185.841 C 205.428 203.148,200.306 206.311,199.607 205.987 C 199.150 205.776,189.694 199.771,178.593 192.643 C 148.882 173.565,121.959 156.387,100.248 142.657 C 97.911 141.179,97.872 141.031,97.865 133.639 L 97.859 127.625 200.204 127.625 L 302.548 127.625 302.548 134.062 M302.459 211.417 C 302.396 237.431,302.194 258.949,302.010 259.233 C 301.777 259.593,300.792 258.599,298.778 255.971 C 285.362 238.467,252.760 195.259,250.015 191.346 L 249.093 190.031 260.428 182.554 C 271.102 175.512,290.103 163.206,298.267 158.047 L 301.937 155.728 302.255 159.923 C 302.431 162.230,302.522 185.403,302.459 211.417 M117.023 168.114 C 140.885 183.281,151.544 190.592,150.946 191.382 C 150.753 191.637,146.857 196.799,142.289 202.854 C 134.837 212.731,110.029 245.204,101.721 255.957 C 99.292 259.102,98.414 259.983,98.160 259.529 C 97.720 258.744,97.960 158.214,98.404 157.314 C 98.806 156.498,98.141 156.112,117.023 168.114 M174.516 204.911 C 180.234 208.536,188.355 213.723,192.560 216.438 L 200.208 221.373 211.928 213.783 C 230.891 201.505,238.298 197.180,238.889 198.042 C 239.029 198.246,244.753 205.743,251.609 214.701 C 267.078 234.912,294.947 271.587,295.359 272.273 C 295.603 272.680,276.503 272.783,200.398 272.783 C 138.253 272.783,105.178 272.644,105.267 272.383 C 105.520 271.638,150.844 212.261,156.317 205.505 C 160.076 200.864,163.151 197.743,163.662 198.048 C 163.913 198.198,168.797 201.286,174.516 204.911 " fill="#212121"></path></g></svg>
