<svg fill="#212121" id="svg" xmlns="http://www.w3.org/2000/svg" xmlns:xlink="http://www.w3.org/1999/xlink" width="400" height="404.6666666666667" viewBox="0, 0, 400,404.6666666666667"><path id="path0" d="M190.833 0.101 C 190.329 0.133,188.604 0.238,187.000 0.334 C 94.717 5.857,17.466 76.008,2.090 168.250 C 1.127 174.032,-0.008 183.342,0.004 185.375 L 0.008 186.083 28.879 198.118 C 44.758 204.737,68.909 214.808,82.548 220.498 L 107.346 230.844 109.465 229.533 C 118.736 223.793,128.207 221.032,139.000 220.924 L 142.583 220.888 166.433 186.007 L 190.284 151.126 190.386 147.604 C 191.608 105.464,227.557 71.878,269.159 74.007 C 317.368 76.474,350.946 122.640,338.672 169.583 C 330.102 202.363,299.895 226.144,266.802 226.165 L 264.021 226.167 240.219 243.299 C 227.128 252.721,211.794 263.758,206.144 267.824 L 195.872 275.216 195.859 278.483 C 195.722 314.061,163.013 340.989,128.333 334.073 C 106.767 329.772,89.158 312.667,84.234 291.234 L 83.770 289.217 69.343 283.200 C 61.409 279.890,44.123 272.679,30.930 267.175 C 17.737 261.671,6.912 257.200,6.873 257.238 C 6.350 257.762,12.879 276.137,16.501 284.333 C 51.899 364.437,133.953 412.299,220.491 403.321 C 314.484 393.570,389.246 318.170,398.996 223.291 C 399.942 214.081,400.288 197.406,399.701 189.250 C 396.099 139.179,376.388 94.873,342.182 59.959 C 307.496 24.555,263.463 4.266,212.750 0.320 C 210.565 0.150,192.843 -0.027,190.833 0.101 M261.455 99.331 C 218.520 103.495,199.826 155.829,230.408 186.250 C 260.781 216.463,312.285 197.209,316.010 154.250 C 318.705 123.181,292.064 96.363,261.455 99.331 M270.250 112.192 C 298.016 115.400,312.747 147.492,297.247 171.004 C 281.185 195.369,245.108 193.060,232.072 166.833 C 218.751 140.031,240.595 108.766,270.250 112.192 M136.578 235.004 C 132.494 235.244,123.688 237.278,124.284 237.844 C 124.357 237.913,130.379 240.457,137.667 243.496 C 153.329 250.029,153.950 250.339,157.750 253.536 C 179.092 271.488,167.642 306.779,139.753 309.006 C 133.114 309.536,131.180 308.991,113.500 301.615 C 106.579 298.727,100.889 296.391,100.856 296.424 C 100.733 296.543,102.733 300.130,103.917 301.911 C 121.564 328.467,161.346 326.723,176.546 298.726 C 192.738 268.902,170.235 233.025,136.578 235.004 "></path></svg>
